<svg width="31" height="36" viewBox="0 0 31 36" fill="none" xmlns="http://www.w3.org/2000/svg">
<path d="M30.6187 5.4129L24.294 11.3389C19.6338 7.51993 15.0289 8.86973 13.309 10.022C11.2007 11.3389 7.5169 15.2896 9.64731 20.5571C11.7777 25.8247 16.1939 26.7026 18.1357 26.4831V17.7587L26.624 26.4831V35.2075C10.1466 37.0182 7.31916 31.9818 5.32237 30.5983C1.99531 28.2932 -5.64978 11.8401 7.8166 3.10835C17.9715 -3.47615 27.6783 2.01094 30.6187 5.4129Z" fill="url(#paint0_linear_7_3758)"/>
<path d="M30.5926 5.45419C24.6009 4.92744 16.5008 8.25258 13.4495 9.89869C17.6104 7.75875 22.4372 9.56947 24.268 11.3802L30.5926 5.45419Z" fill="url(#paint1_linear_7_3758)"/>
<path d="M10.5178 1.69451C8.25419 7.09375 8.4541 14.8374 8.95342 18.1296C8.42094 6.93604 27.4281 5.4545 30.5904 5.4545C23.5999 -1.95296 14.1129 -0.306842 10.5178 1.69451Z" fill="url(#paint2_linear_7_3758)"/>
<path d="M10.4539 1.66873C7.29158 13.5207 7.7909 21.2574 13.6163 25.5373C10.6204 25.5373 2.40933 15.7704 0.634033 12.6977C2.29842 6.11323 7.90188 2.60153 10.4539 1.66873Z" fill="url(#paint3_linear_7_3758)"/>
<path d="M18.109 26.3603C12.2837 26.6896 6.12442 20.1051 0.632282 12.6976C-1.09868 17.4384 1.13126 24.1655 2.46277 26.6896C8.85402 29.455 15.6125 27.5126 18.109 26.3603Z" fill="url(#paint4_linear_7_3758)"/>
<path d="M24.5997 27.0186C22.7732 31.2766 17.4952 32.827 14.9345 33.0943C14.8459 33.1035 14.7798 33.1775 14.7798 33.2666C14.7798 33.3615 14.8567 33.4384 14.9516 33.4384H22.5997C23.7042 33.4384 24.5997 32.543 24.5997 31.4384V27.0186Z" fill="url(#paint5_linear_7_3758)"/>
<defs>
<linearGradient id="paint0_linear_7_3758" x1="2.88793" y1="33.1412" x2="27.4995" y2="29.8865" gradientUnits="userSpaceOnUse">
<stop stop-color="#A8FFCF"/>
<stop offset="0.7181" stop-color="#21D772"/>
</linearGradient>
<linearGradient id="paint1_linear_7_3758" x1="28.2625" y1="5.28959" x2="22.0891" y2="11.4484" gradientUnits="userSpaceOnUse">
<stop stop-color="#52B27D"/>
<stop offset="1" stop-color="#58D18E"/>
</linearGradient>
<linearGradient id="paint2_linear_7_3758" x1="22.435" y1="0.516218" x2="18.5211" y2="14.202" gradientUnits="userSpaceOnUse">
<stop stop-color="#A8FFCF"/>
<stop offset="0.369818" stop-color="#21D772"/>
</linearGradient>
<linearGradient id="paint3_linear_7_3758" x1="9.00915" y1="3.23354" x2="2.07548" y2="18.5902" gradientUnits="userSpaceOnUse">
<stop offset="0.23156" stop-color="#A8FFCF"/>
<stop offset="0.758626" stop-color="#21D772"/>
</linearGradient>
<linearGradient id="paint4_linear_7_3758" x1="8.77612" y1="18.5917" x2="8.02689" y2="24.7396" gradientUnits="userSpaceOnUse">
<stop stop-color="#A8FFCF"/>
<stop offset="0.975496" stop-color="#21D772"/>
</linearGradient>
<linearGradient id="paint5_linear_7_3758" x1="20.9526" y1="27.2014" x2="18.1682" y2="33.6237" gradientUnits="userSpaceOnUse">
<stop stop-color="#A8FFCF"/>
<stop offset="1" stop-color="#21D772"/>
</linearGradient>
</defs>
</svg>
