<svg width="139" height="36" viewBox="0 0 139 36" fill="none" xmlns="http://www.w3.org/2000/svg">
<path d="M30.6187 5.4129L24.294 11.3389C19.6338 7.51993 15.0289 8.86973 13.309 10.022C11.2007 11.3389 7.5169 15.2896 9.64731 20.5571C11.7777 25.8247 16.1939 26.7026 18.1357 26.4831V17.7587L26.624 26.4831V35.2075C10.1466 37.0182 7.31916 31.9818 5.32237 30.5983C1.99531 28.2932 -5.64978 11.8401 7.8166 3.10835C17.9715 -3.47615 27.6783 2.01094 30.6187 5.4129Z" fill="url(#paint0_linear_4_618)"/>
<path d="M30.5926 5.45419C24.6009 4.92744 16.5008 8.25258 13.4495 9.89869C17.6104 7.75875 22.4372 9.56947 24.268 11.3802L30.5926 5.45419Z" fill="url(#paint1_linear_4_618)"/>
<path d="M10.5178 1.69451C8.25419 7.09375 8.4541 14.8374 8.95342 18.1296C8.42094 6.93604 27.4281 5.4545 30.5904 5.4545C23.5999 -1.95296 14.1129 -0.306842 10.5178 1.69451Z" fill="url(#paint2_linear_4_618)"/>
<path d="M10.4539 1.66873C7.29158 13.5207 7.7909 21.2574 13.6163 25.5373C10.6204 25.5373 2.40933 15.7704 0.634033 12.6977C2.29842 6.11323 7.90188 2.60153 10.4539 1.66873Z" fill="url(#paint3_linear_4_618)"/>
<path d="M18.109 26.3603C12.2837 26.6896 6.12442 20.1051 0.632282 12.6976C-1.09868 17.4384 1.13126 24.1655 2.46277 26.6896C8.85402 29.455 15.6125 27.5126 18.109 26.3603Z" fill="url(#paint4_linear_4_618)"/>
<path d="M24.5997 27.0186C22.7732 31.2766 17.4952 32.827 14.9345 33.0943C14.8459 33.1035 14.7798 33.1775 14.7798 33.2666C14.7798 33.3615 14.8567 33.4384 14.9516 33.4384H22.5997C23.7042 33.4384 24.5997 32.543 24.5997 31.4384V27.0186Z" fill="url(#paint5_linear_4_618)"/>
<path d="M35.2264 28.5955H31.2718L37.2974 11.141H42.0531L48.0701 28.5955H44.1156L39.7434 15.1296H39.6071L35.2264 28.5955ZM34.9792 21.7347H44.3201V24.6154H34.9792V21.7347ZM50.171 11.141H54.7221L59.5289 22.8682H59.7335L64.5403 11.141H69.0914V28.5955H65.5119V17.2347H65.367L60.85 28.5103H58.4125L53.8954 17.1921H53.7505V28.5955H50.171V11.141ZM72.1319 28.5955V11.141H83.8933V14.1836H75.8223V18.3427H83.2882V21.3853H75.8223V25.5529H83.9274V28.5955H72.1319ZM86.8272 28.5955V11.141H90.5176V18.3427H98.009V11.141H101.691V28.5955H98.009V21.3853H90.5176V28.5955H86.8272ZM120.773 19.8682C120.773 21.7717 120.412 23.391 119.691 24.7262C118.975 26.0614 117.998 27.0813 116.759 27.7859C115.526 28.4847 114.14 28.8342 112.6 28.8342C111.049 28.8342 109.657 28.4819 108.424 27.7773C107.191 27.0728 106.216 26.0529 105.501 24.7177C104.785 23.3825 104.427 21.766 104.427 19.8682C104.427 17.9648 104.785 16.3455 105.501 15.0103C106.216 13.6751 107.191 12.658 108.424 11.9592C109.657 11.2546 111.049 10.9023 112.6 10.9023C114.14 10.9023 115.526 11.2546 116.759 11.9592C117.998 12.658 118.975 13.6751 119.691 15.0103C120.412 16.3455 120.773 17.9648 120.773 19.8682ZM117.032 19.8682C117.032 18.6353 116.847 17.5955 116.478 16.7489C116.114 15.9023 115.6 15.2603 114.935 14.8228C114.27 14.3853 113.492 14.1665 112.6 14.1665C111.708 14.1665 110.929 14.3853 110.265 14.8228C109.6 15.2603 109.083 15.9023 108.714 16.7489C108.35 17.5955 108.168 18.6353 108.168 19.8682C108.168 21.1012 108.35 22.141 108.714 22.9876C109.083 23.8342 109.6 24.4762 110.265 24.9137C110.929 25.3512 111.708 25.57 112.6 25.57C113.492 25.57 114.27 25.3512 114.935 24.9137C115.6 24.4762 116.114 23.8342 116.478 22.9876C116.847 22.141 117.032 21.1012 117.032 19.8682ZM123.507 28.5955V11.141H127.197V18.837H127.427L133.709 11.141H138.132L131.655 18.9563L138.209 28.5955H133.794L129.013 21.4194L127.197 23.6353V28.5955H123.507Z" fill="white"/>
<defs>
<linearGradient id="paint0_linear_4_618" x1="2.88793" y1="33.1412" x2="27.4995" y2="29.8865" gradientUnits="userSpaceOnUse">
<stop stop-color="#A8FFCF"/>
<stop offset="0.7181" stop-color="#21D772"/>
</linearGradient>
<linearGradient id="paint1_linear_4_618" x1="28.2625" y1="5.28959" x2="22.0891" y2="11.4484" gradientUnits="userSpaceOnUse">
<stop stop-color="#52B27D"/>
<stop offset="1" stop-color="#58D18E"/>
</linearGradient>
<linearGradient id="paint2_linear_4_618" x1="22.435" y1="0.516218" x2="18.5211" y2="14.202" gradientUnits="userSpaceOnUse">
<stop stop-color="#A8FFCF"/>
<stop offset="0.369818" stop-color="#21D772"/>
</linearGradient>
<linearGradient id="paint3_linear_4_618" x1="9.00915" y1="3.23354" x2="2.07548" y2="18.5902" gradientUnits="userSpaceOnUse">
<stop offset="0.23156" stop-color="#A8FFCF"/>
<stop offset="0.758626" stop-color="#21D772"/>
</linearGradient>
<linearGradient id="paint4_linear_4_618" x1="8.77612" y1="18.5917" x2="8.02689" y2="24.7396" gradientUnits="userSpaceOnUse">
<stop stop-color="#A8FFCF"/>
<stop offset="0.975496" stop-color="#21D772"/>
</linearGradient>
<linearGradient id="paint5_linear_4_618" x1="20.9526" y1="27.2014" x2="18.1682" y2="33.6237" gradientUnits="userSpaceOnUse">
<stop stop-color="#A8FFCF"/>
<stop offset="1" stop-color="#21D772"/>
</linearGradient>
</defs>
</svg>
